<?xml version="1.0" encoding="utf-8"?>
<svg xmlns="http://www.w3.org/2000/svg" viewBox="0 0 48 48" width="144" height="144">
  <path d="M23.976562 1.9785156 A 1.50015 1.50015 0 0 0 22.5 3.5L22.5 5.0761719C13.221404 5.8067457 5.8067457 13.221404 5.0761719 22.5L3.5 22.5 A 1.50015 1.50015 0 1 0 3.5 25.5L5.0761719 25.5C5.8067457 34.778596 13.221404 42.193254 22.5 42.923828L22.5 44.5 A 1.50015 1.50015 0 1 0 25.5 44.5L25.5 42.923828C34.778596 42.193254 42.193254 34.778596 42.923828 25.5L44.5 25.5 A 1.50015 1.50015 0 1 0 44.5 22.5L42.923828 22.5C42.193254 13.221404 34.778596 5.8067457 25.5 5.0761719L25.5 3.5 A 1.50015 1.50015 0 0 0 23.976562 1.9785156 z M 22.5 8.0742188L22.5 12.105469C17.087664 12.786667 12.786667 17.087664 12.105469 22.5L8.0742188 22.5C8.7825081 14.847653 14.847653 8.7825081 22.5 8.0742188 z M 25.5 8.0742188C33.152347 8.7825081 39.217492 14.847653 39.925781 22.5L35.894531 22.5C35.213333 17.087664 30.912336 12.786667 25.5 12.105469L25.5 8.0742188 z M 22.5 15.132812L22.5 16.5 A 1.50015 1.50015 0 1 0 25.5 16.5L25.5 15.132812C29.278345 15.762327 32.237673 18.721655 32.867188 22.5L31.5 22.5 A 1.50015 1.50015 0 1 0 31.5 25.5L32.867188 25.5C32.237673 29.278345 29.278345 32.237673 25.5 32.867188L25.5 31.5 A 1.50015 1.50015 0 0 0 23.976562 29.978516 A 1.50015 1.50015 0 0 0 22.5 31.5L22.5 32.867188C18.721655 32.237673 15.762327 29.278345 15.132812 25.5L16.5 25.5 A 1.50015 1.50015 0 1 0 16.5 22.5L15.132812 22.5C15.762327 18.721655 18.721655 15.762327 22.5 15.132812 z M 24 20C21.791 20 20 21.791 20 24C20 26.209 21.791 28 24 28C26.209 28 28 26.209 28 24C28 21.791 26.209 20 24 20 z M 8.0742188 25.5L12.105469 25.5C12.786667 30.912336 17.087664 35.213333 22.5 35.894531L22.5 39.925781C14.847653 39.217492 8.7825081 33.152347 8.0742188 25.5 z M 35.894531 25.5L39.925781 25.5C39.217492 33.152347 33.152347 39.217492 25.5 39.925781L25.5 35.894531C30.912336 35.213333 35.213333 30.912336 35.894531 25.5 z" fill="#7277AB" />
</svg>